<svg width="168" height="39" viewBox="0 0 168 39" fill="none" xmlns="http://www.w3.org/2000/svg">
<path d="M84.7477 6.75745C84.3286 6.86549 83.8596 6.9146 83.3606 6.9146C82.8417 6.9146 82.3627 6.83602 81.9237 6.66905C81.4846 6.50208 81.1054 6.27617 80.7961 5.98151C80.4768 5.68686 80.2273 5.33327 80.0477 4.92075C79.878 4.50823 79.7882 4.0466 79.7882 3.53586C79.7882 3.02512 79.878 2.56348 80.0577 2.14114C80.2373 1.72862 80.4867 1.37503 80.8061 1.08037C81.1254 0.785717 81.4946 0.569635 81.9237 0.412484C82.3528 0.255333 82.8218 0.176758 83.3107 0.176758C83.8296 0.176758 84.3086 0.245511 84.7477 0.402662C85.1867 0.559813 85.546 0.766073 85.8254 1.02144L84.8275 2.14114C84.6778 1.96435 84.4782 1.81702 84.2288 1.70898C83.9693 1.59111 83.6899 1.54201 83.3706 1.54201C83.0912 1.54201 82.8417 1.59111 82.6022 1.68933C82.3727 1.78755 82.1732 1.92506 82.0035 2.10185C81.8239 2.27865 81.6942 2.49473 81.6044 2.74028C81.5046 2.98583 81.4547 3.25102 81.4547 3.53586C81.4547 3.83051 81.5046 4.10553 81.5844 4.35107C81.6742 4.59662 81.794 4.81271 81.9636 4.9895C82.1332 5.16629 82.3428 5.3038 82.5923 5.40202C82.8417 5.51006 83.1211 5.55917 83.4404 5.55917C83.63 5.55917 83.7997 5.53953 83.9693 5.51988C84.129 5.49042 84.2886 5.44131 84.4283 5.38238V4.21357H83.181V2.96618H85.8653V6.36457C85.546 6.52172 85.1767 6.65923 84.7477 6.75745Z" fill="white"/>
<path d="M94.4569 3.51621C94.4569 3.2412 94.407 2.98583 94.3172 2.74028C94.2274 2.50455 94.0977 2.29829 93.938 2.1215C93.7684 1.95453 93.5788 1.81702 93.3493 1.7188C93.1198 1.62058 92.8603 1.56165 92.5909 1.56165C92.3115 1.56165 92.062 1.62058 91.8325 1.7188C91.603 1.81702 91.4134 1.95453 91.2438 2.1215C91.0841 2.29829 90.9544 2.50455 90.8646 2.74028C90.7748 2.98583 90.7349 3.2412 90.7349 3.51621C90.7349 3.81087 90.7748 4.07606 90.8646 4.32161C90.9644 4.56716 91.0841 4.77342 91.2538 4.95021C91.4134 5.12701 91.603 5.26451 91.8325 5.36273C92.062 5.46095 92.3115 5.51006 92.5909 5.51006C92.8603 5.51006 93.1198 5.46095 93.3393 5.36273C93.5688 5.26451 93.7684 5.12701 93.9281 4.95021C94.0977 4.77342 94.2274 4.56716 94.3172 4.32161C94.407 4.07606 94.4569 3.81087 94.4569 3.51621ZM96.1333 3.51621C96.1333 4.02695 96.0435 4.48858 95.8739 4.91092C95.6943 5.33327 95.4448 5.68686 95.1255 5.98151C94.8162 6.28599 94.437 6.5119 94.0079 6.67887C93.5688 6.84584 93.0998 6.92442 92.5909 6.92442C92.082 6.92442 91.613 6.84584 91.1739 6.67887C90.7448 6.5119 90.3756 6.28599 90.0563 5.98151C89.737 5.68686 89.4975 5.33327 89.3179 4.91092C89.1383 4.48858 89.0485 4.02695 89.0485 3.51621C89.0485 3.00547 89.1383 2.54384 89.3179 2.13132C89.4975 1.7188 89.737 1.36521 90.0563 1.08037C90.3756 0.785717 90.7448 0.569635 91.1739 0.412484C91.613 0.255333 92.082 0.176758 92.5909 0.176758C93.0998 0.176758 93.5688 0.255333 94.0079 0.412484C94.437 0.569635 94.8162 0.785717 95.1255 1.08037C95.4448 1.36521 95.6943 1.7188 95.8739 2.13132C96.0435 2.54384 96.1333 3.00547 96.1333 3.51621Z" fill="white"/>
<path d="M102.6 6.74764H101.023L98.5582 0.34375H100.324L101.831 4.8913H101.871L103.368 0.34375H105.104L102.6 6.74764Z" fill="white"/>
<path d="M107.838 6.74764V0.34375H112.209V1.65007H109.355V2.85816H112.059V4.09572H109.355V5.43151H112.379V6.74764H107.838Z" fill="white"/>
<path d="M119.035 2.30813C119.035 2.16081 118.995 2.03312 118.935 1.94472C118.875 1.8465 118.785 1.77775 118.685 1.72864C118.586 1.66971 118.466 1.64024 118.346 1.6206C118.216 1.60096 118.097 1.59113 117.977 1.59113H117.139V3.08407H117.887C118.017 3.08407 118.146 3.07424 118.286 3.0546C118.416 3.03496 118.546 2.99567 118.655 2.93674C118.765 2.88763 118.855 2.80905 118.925 2.71083C118.995 2.60279 119.035 2.47511 119.035 2.30813ZM119.094 6.74764L117.687 4.20377H117.149V6.74764H115.612V0.34375H118.097C118.406 0.34375 118.715 0.373216 119.005 0.441969C119.304 0.500901 119.573 0.608942 119.813 0.766093C120.042 0.913422 120.232 1.10986 120.372 1.35541C120.511 1.60096 120.581 1.91526 120.581 2.27867C120.581 2.71083 120.462 3.08407 120.222 3.37872C119.993 3.67338 119.653 3.87964 119.234 4.00733L120.931 6.74764H119.094Z" fill="white"/>
<path d="M128.035 6.74764L125.421 2.5635H125.391L125.431 6.74764H123.904V0.34375H125.69L128.305 4.52789H128.335L128.295 0.34375H129.821V6.74764H128.035Z" fill="white"/>
<path d="M138.463 3.51621C138.463 3.2412 138.413 2.98583 138.323 2.74028C138.233 2.50455 138.104 2.29829 137.944 2.1215C137.784 1.95453 137.585 1.81702 137.355 1.7188C137.126 1.62058 136.876 1.56165 136.597 1.56165C136.318 1.56165 136.068 1.62058 135.839 1.7188C135.619 1.81702 135.419 1.95453 135.25 2.1215C135.09 2.29829 134.96 2.50455 134.871 2.74028C134.781 2.98583 134.741 3.2412 134.741 3.51621C134.741 3.81087 134.781 4.07606 134.881 4.32161C134.97 4.56716 135.1 4.77342 135.26 4.95021C135.419 5.12701 135.619 5.26451 135.839 5.36273C136.068 5.46095 136.318 5.51006 136.597 5.51006C136.876 5.51006 137.126 5.46095 137.345 5.36273C137.575 5.26451 137.774 5.12701 137.934 4.95021C138.104 4.77342 138.233 4.56716 138.323 4.32161C138.413 4.07606 138.463 3.81087 138.463 3.51621ZM140.139 3.51621C140.139 4.02695 140.06 4.48858 139.88 4.91092C139.7 5.33327 139.451 5.68686 139.142 5.98151C138.822 6.28599 138.443 6.5119 138.014 6.67887C137.575 6.84584 137.106 6.92442 136.597 6.92442C136.088 6.92442 135.619 6.84584 135.19 6.67887C134.751 6.5119 134.382 6.28599 134.062 5.98151C133.753 5.68686 133.504 5.33327 133.324 4.91092C133.144 4.48858 133.055 4.02695 133.055 3.51621C133.055 3.00547 133.144 2.54384 133.324 2.13132C133.504 1.7188 133.753 1.36521 134.062 1.08037C134.382 0.785717 134.751 0.569635 135.19 0.412484C135.619 0.255333 136.088 0.176758 136.597 0.176758C137.106 0.176758 137.575 0.255333 138.014 0.412484C138.443 0.569635 138.822 0.785717 139.142 1.08037C139.451 1.36521 139.7 1.7188 139.88 2.13132C140.06 2.54384 140.139 3.00547 140.139 3.51621Z" fill="white"/>
<path d="M152.314 3.52605C152.314 3.17246 152.254 2.86798 152.134 2.63226C152.014 2.39653 151.854 2.20009 151.655 2.06259C151.455 1.91526 151.226 1.81704 150.976 1.75811C150.717 1.69918 150.457 1.66971 150.188 1.66971H149.41V5.41186H150.158C150.438 5.41186 150.707 5.3824 150.966 5.31364C151.226 5.25471 151.455 5.14667 151.655 5.00916C151.854 4.86184 152.014 4.6654 152.134 4.42967C152.254 4.18412 152.314 3.88946 152.314 3.52605ZM153.95 3.52605C153.95 4.0859 153.84 4.577 153.631 4.9797C153.421 5.39222 153.142 5.72616 152.792 5.98153C152.453 6.24673 152.064 6.44316 151.625 6.56103C151.186 6.68871 150.747 6.74764 150.298 6.74764H147.873V0.34375H150.228C150.687 0.34375 151.136 0.402682 151.585 0.500901C152.034 0.608942 152.433 0.785737 152.783 1.03128C153.132 1.27683 153.411 1.60096 153.631 2.01348C153.84 2.41618 153.95 2.92692 153.95 3.52605Z" fill="white"/>
<path d="M162.282 3.51621C162.282 3.2412 162.242 2.98583 162.153 2.74028C162.053 2.50455 161.933 2.29829 161.763 2.1215C161.604 1.95453 161.404 1.81702 161.175 1.7188C160.945 1.62058 160.696 1.56165 160.416 1.56165C160.147 1.56165 159.897 1.62058 159.668 1.7188C159.438 1.81702 159.249 1.95453 159.079 2.1215C158.909 2.29829 158.79 2.50455 158.7 2.74028C158.61 2.98583 158.56 3.2412 158.56 3.51621C158.56 3.81087 158.61 4.07606 158.7 4.32161C158.79 4.56716 158.919 4.77342 159.079 4.95021C159.249 5.12701 159.438 5.26451 159.668 5.36273C159.897 5.46095 160.147 5.51006 160.416 5.51006C160.696 5.51006 160.945 5.46095 161.175 5.36273C161.404 5.26451 161.594 5.12701 161.763 4.95021C161.933 4.77342 162.053 4.56716 162.153 4.32161C162.242 4.07606 162.282 3.81087 162.282 3.51621ZM163.969 3.51621C163.969 4.02695 163.879 4.48858 163.699 4.91092C163.52 5.33327 163.28 5.68686 162.961 5.98151C162.641 6.28599 162.272 6.5119 161.833 6.67887C161.404 6.84584 160.925 6.92442 160.416 6.92442C159.907 6.92442 159.438 6.84584 159.009 6.67887C158.58 6.5119 158.201 6.28599 157.892 5.98151C157.572 5.68686 157.323 5.33327 157.153 4.91092C156.974 4.48858 156.884 4.02695 156.884 3.51621C156.884 3.00547 156.974 2.54384 157.153 2.13132C157.323 1.7188 157.572 1.36521 157.892 1.08037C158.201 0.785717 158.58 0.569635 159.009 0.412484C159.438 0.255333 159.907 0.176758 160.416 0.176758C160.925 0.176758 161.404 0.255333 161.833 0.412484C162.272 0.569635 162.641 0.785717 162.961 1.08037C163.28 1.36521 163.52 1.7188 163.699 2.13132C163.879 2.54384 163.969 3.00547 163.969 3.51621Z" fill="white"/>
<path fill-rule="evenodd" clip-rule="evenodd" d="M112.518 10.3425H112.459H106.581H105.853H105.643L105.364 11.1676L96.4726 38.3252H103.298L104.945 33.2964H113.387L115.043 38.3252H122.068L112.518 10.3425ZM109.156 20.41L111.59 27.8059H106.741L109.156 20.41Z" fill="white"/>
<path fill-rule="evenodd" clip-rule="evenodd" d="M159.558 10.3425L162.921 20.1939V10.3425H159.558Z" fill="white"/>
<path fill-rule="evenodd" clip-rule="evenodd" d="M90.2359 10.3523H79.7982V38.3251H86.6635V27.7764H90.0762C91.5431 27.7764 92.9601 27.6192 94.3272 27.3049C95.6942 26.9808 96.8917 26.4897 97.9395 25.8022C98.9872 25.1146 99.8155 24.211 100.424 23.0913C101.043 21.9716 101.352 20.5966 101.352 18.9661C101.352 17.3651 101.063 16.0097 100.484 14.9195C99.9152 13.8293 99.1269 12.9453 98.1191 12.2676C97.1212 11.5997 95.9337 11.1086 94.5866 10.8139C93.2395 10.5094 91.7826 10.3523 90.2359 10.3523ZM86.6635 15.8035H89.6671C90.2858 15.8035 90.8845 15.8427 91.4533 15.9213C92.0321 15.9999 92.5509 16.1571 93 16.4026C93.459 16.6383 93.8182 16.9624 94.0877 17.3848C94.3571 17.8071 94.4868 18.3473 94.4868 19.0054C94.4868 19.6635 94.3571 20.2135 94.0877 20.6457C93.8182 21.0778 93.449 21.4314 92.98 21.6868C92.511 21.952 91.9822 22.1386 91.3934 22.2466C90.8047 22.3547 90.196 22.4038 89.5474 22.4038H86.6635V15.8035Z" fill="white"/>
<path fill-rule="evenodd" clip-rule="evenodd" d="M122.527 10.1755V38.3252H129.273V27.1478H131.628L137.834 38.3252H142.425H145.917H149.24L150.887 33.2963H159.329L160.965 38.3252L168 38.335L158.48 10.3327H151.815V10.3425H151.585L151.306 11.1676L143.632 34.6321L138.443 26.2737C140.299 25.7236 141.756 24.7906 142.804 23.4941C143.852 22.1976 144.38 20.5966 144.38 18.6813C144.38 17.0705 144.071 15.7151 143.452 14.6347C142.834 13.5445 142.005 12.6703 140.968 12.0122C139.93 11.3443 138.762 10.8729 137.455 10.5979C136.148 10.3229 134.811 10.1755 133.434 10.1755H122.527ZM129.233 15.666H132.925C133.444 15.666 133.973 15.7053 134.531 15.7839C135.09 15.8624 135.589 16.0196 136.028 16.2455C136.477 16.4714 136.846 16.7857 137.126 17.1982C137.415 17.6107 137.555 18.1411 137.555 18.809C137.555 19.5162 137.395 20.1055 137.086 20.5573C136.777 21.0091 136.377 21.3529 135.889 21.5886C135.4 21.8243 134.861 21.9913 134.272 22.0895C133.673 22.1779 133.095 22.227 132.526 22.227H129.233V15.666ZM155.108 20.4002L157.532 27.8059H152.683L155.108 20.4002Z" fill="white"/>
<path d="M25.8632 30.0748L0.00839233 6.38428V38.4921H23.0592L25.8632 30.0748Z" fill="white"/>
<path d="M27.3103 38.492H35.0338L31.641 35.3784L27.3103 38.492Z" fill="white"/>
<path fill-rule="evenodd" clip-rule="evenodd" d="M31.7508 17.2375L17.6708 17.208L29.0765 25.3307L24.6958 38.5019L36.0715 30.3301L47.4473 38.5019L43.0666 25.3307L54.4723 17.208L40.3923 17.2375L36.0715 4.04663L31.7508 17.2375Z" fill="white"/>
<path d="M35.2233 0L72.2942 30.281V0H35.2233Z" fill="white"/>
</svg>
